<?xml version="1.0" standalone="no"?>
<!DOCTYPE svg PUBLIC "-//W3C//DTD SVG 20010904//EN"
 "http://www.w3.org/TR/2001/REC-SVG-20010904/DTD/svg10.dtd">
<svg version="1.0" xmlns="http://www.w3.org/2000/svg"
 width="514.000000pt" height="514.000000pt" viewBox="0 0 514.000000 514.000000"
 preserveAspectRatio="xMidYMid meet">
<metadata>
Created by potrace 1.14, written by Peter Selinger 2001-2017
</metadata>
<g transform="translate(0.000000,514.000000) scale(0.100000,-0.100000)"
fill="#000000" stroke="none">
<path d="M2471 4760 c-43 -34 -131 -138 -131 -155 0 -3 -7 -17 -16 -30 l-16
-25 -40 50 c-42 53 -136 121 -193 140 -32 11 -37 10 -55 -12 -29 -35 -97 -178
-105 -221 -4 -20 -11 -39 -15 -42 -4 -3 -34 13 -66 34 -67 44 -132 69 -204 76
-47 5 -50 4 -66 -26 -23 -46 -44 -109 -51 -152 -3 -21 -6 -46 -8 -55 -2 -9 -4
-32 -4 -50 l-1 -32 -40 20 c-55 28 -153 50 -227 50 l-62 0 -12 -42 c-18 -66
-13 -258 8 -292 4 -5 -1 -7 -11 -3 -10 4 -41 10 -69 13 -29 3 -63 7 -77 8 -40
5 -164 -14 -172 -27 -23 -35 -1 -192 38 -280 10 -20 15 -40 12 -43 -3 -3 -30
-7 -59 -10 -87 -6 -144 -21 -212 -56 -38 -19 -38 -20 -33 -63 9 -64 29 -115
75 -188 23 -35 41 -66 41 -69 0 -3 -19 -10 -42 -17 -85 -26 -191 -82 -233
-125 -15 -14 -15 -21 -4 -49 30 -76 106 -172 173 -220 18 -13 15 -16 -39 -47
-61 -35 -150 -116 -179 -163 -16 -26 -16 -30 -1 -53 32 -50 117 -123 174 -152
l58 -29 -64 -66 c-66 -70 -108 -131 -125 -179 -9 -25 -7 -31 18 -51 62 -49
113 -78 184 -104 41 -14 76 -28 78 -29 2 -1 -15 -29 -37 -62 -49 -71 -70 -128
-74 -195 -2 -46 0 -51 28 -67 30 -17 76 -33 127 -44 l28 -6 2 -383 3 -382 355
-1 c195 -1 363 -2 372 -3 16 -1 16 -4 3 -34 -18 -39 -98 -347 -92 -353 2 -3
16 0 31 6 15 5 41 12 59 15 18 3 43 10 57 15 14 5 56 16 94 25 107 26 116 31
188 105 37 39 71 70 75 69 4 0 20 -26 36 -58 15 -32 40 -73 55 -91 l29 -32 46
20 c61 27 133 77 179 124 21 21 41 38 45 38 5 0 20 -21 35 -48 32 -57 88 -115
147 -153 l44 -29 46 37 c69 57 101 94 138 165 l20 37 49 -45 c58 -54 114 -94
171 -123 34 -17 47 -19 61 -10 16 10 71 80 93 119 6 11 34 -12 122 -103 l114
-119 104 -29 c57 -17 112 -32 121 -34 9 -2 44 -11 78 -21 33 -9 62 -15 64 -13
2 2 -16 85 -41 184 l-44 180 -50 50 c-46 48 -58 77 -41 100 5 7 150 11 427 10
l420 0 0 393 0 393 45 23 c40 20 45 27 46 57 2 60 -52 176 -117 250 l-20 23
58 16 c83 23 146 56 200 104 l46 42 -33 62 c-18 34 -61 91 -95 126 l-63 63 64
42 c67 44 124 100 155 149 16 28 16 30 -11 74 -28 45 -92 103 -167 153 l-43
27 28 22 c68 52 131 142 152 216 7 26 4 33 -25 58 -38 34 -125 77 -196 98 -27
8 -49 17 -49 19 0 3 13 26 30 53 35 57 75 160 85 219 6 41 6 42 -34 63 -51 25
-145 50 -212 55 -28 2 -53 6 -55 8 -3 2 4 24 14 48 10 24 24 66 31 92 12 51
17 169 7 186 -13 21 -167 31 -256 17 l-65 -11 2 116 c1 85 -3 131 -14 168
l-17 51 -85 -4 c-83 -4 -135 -17 -200 -50 -29 -16 -31 -15 -32 1 -3 91 -46
245 -79 283 -19 22 -23 23 -70 12 -61 -14 -129 -44 -193 -84 -26 -17 -50 -28
-53 -26 -3 3 -7 18 -10 34 -12 63 -60 156 -118 225 -24 28 -29 30 -56 20 -58
-20 -160 -102 -206 -165 l-21 -29 -23 39 c-62 102 -167 214 -201 214 -4 0 -30
-18 -58 -40z m133 -90 c89 -117 120 -240 83 -331 l-13 -33 -23 25 c-48 49 -99
212 -116 363 -6 55 -5 59 10 46 9 -8 36 -39 59 -70z m-419 -66 c76 -74 116
-152 119 -228 3 -66 -4 -81 -33 -71 -24 7 -88 89 -121 153 -25 50 -90 219 -90
233 0 19 64 -26 125 -87z m865 25 c15 -32 26 -59 23 -59 -3 0 -1 -6 5 -12 16
-21 34 -136 27 -184 -7 -57 -13 -73 -43 -112 l-24 -33 -16 22 c-26 38 -42 145
-37 264 2 61 6 119 9 130 2 11 5 28 5 38 1 29 20 9 51 -54z m-1331 -129 c128
-67 199 -151 209 -247 3 -37 2 -42 -15 -38 -44 8 -73 27 -122 77 -49 49 -171
221 -171 240 0 15 22 8 99 -32z m1762 -60 c34 -124 5 -274 -68 -346 l-27 -27
-13 29 c-29 69 0 276 58 401 l22 48 9 -35 c5 -19 14 -51 19 -70z m-2157 -169
c121 -29 233 -109 259 -186 l16 -45 -27 0 c-45 0 -118 31 -179 77 -75 56 -183
154 -183 166 0 9 37 6 114 -12z m2529 -113 c-8 -143 -53 -240 -135 -293 -27
-17 -28 -17 -36 6 -23 62 27 208 122 358 l41 66 6 -38 c3 -20 4 -65 2 -99z
m-2758 -210 c80 -17 143 -54 195 -111 21 -24 22 -30 10 -37 -25 -16 -96 -11
-157 11 -65 23 -106 43 -208 103 l-70 41 35 6 c45 7 131 1 195 -13z m3090 -55
c-25 -128 -64 -208 -132 -270 -40 -36 -122 -69 -124 -50 -1 7 -2 19 -3 27 -3
24 22 80 61 140 30 47 192 220 206 220 3 0 -1 -30 -8 -67z m-3238 -307 c48
-13 98 -41 131 -73 24 -24 -41 -42 -133 -38 -97 5 -340 73 -322 91 2 3 33 11
68 19 84 18 191 18 256 1z m3463 -102 c-50 -116 -135 -213 -212 -241 -34 -12
-98 -17 -98 -8 0 28 42 91 95 142 67 63 228 177 233 163 1 -4 -7 -29 -18 -56z
m-3571 -286 c28 -6 60 -22 72 -35 l22 -23 -47 -21 c-52 -23 -152 -36 -242 -33
-70 3 -177 14 -181 18 -2 2 27 20 65 39 118 62 210 79 311 55z m3722 -142
c-81 -117 -194 -195 -288 -200 -79 -4 -91 9 -52 58 38 48 181 125 324 174 47
16 48 15 16 -32z m-3739 -258 c23 -8 26 -13 18 -29 -12 -22 -79 -62 -140 -84
-53 -20 -199 -45 -255 -45 l-40 0 39 37 c124 118 268 164 378 121z m3783 -214
c-48 -42 -193 -122 -225 -122 -8 0 -36 -2 -61 -3 -49 -2 -119 17 -119 31 0 10
41 40 86 63 35 18 166 53 234 62 25 4 46 8 47 9 1 1 21 2 45 3 l43 1 -50 -44z
m-3758 -173 c59 -2 -34 -99 -156 -159 -94 -47 -231 -92 -231 -76 0 11 64 88
110 132 67 63 176 112 235 106 11 -1 30 -3 42 -3z m3688 -245 c11 -2 28 -5 38
-5 29 -1 12 -16 -60 -51 -126 -62 -239 -73 -321 -31 -42 21 -61 45 -48 58 4 4
37 15 74 24 50 13 96 16 182 14 63 -2 124 -6 135 -9z m-3591 -148 c-14 -47
-37 -82 -89 -132 -56 -55 -157 -131 -212 -160 l-33 -16 26 57 c73 167 183 273
282 273 30 0 33 -2 26 -22z m3261 -233 c129 -27 255 -81 203 -86 -7 -1 -85 -3
-173 -4 -139 -2 -165 0 -197 16 -49 25 -66 56 -42 73 25 19 120 19 209 1z
m-3085 -85 c0 -5 -5 -10 -11 -10 -5 0 -7 5 -4 10 3 6 8 10 11 10 2 0 4 -4 4
-10z m513 -861 c-6 -6 -19 -9 -29 -6 -17 3 -16 5 6 14 28 12 39 8 23 -8z m339
6 c0 -5 -5 -11 -11 -13 -6 -2 -11 4 -11 13 0 9 5 15 11 13 6 -2 11 -8 11 -13z
m488 -1 c17 -17 49 -161 55 -250 6 -81 5 -84 -13 -73 -26 16 -104 133 -129
194 -21 48 -36 129 -27 138 9 8 104 1 114 -9z m437 -29 c25 -43 77 -173 89
-219 l7 -29 -44 30 c-24 17 -68 56 -97 87 -55 58 -109 156 -91 166 5 4 33 6
62 6 49 -2 53 -3 74 -41z m477 34 c2 -2 20 -30 41 -62 41 -65 40 -66 -51 -25
-44 19 -114 73 -114 88 0 7 117 6 124 -1z m-1303 -21 c4 -76 -7 -247 -16 -256
-5 -6 -85 162 -85 178 0 14 79 98 93 99 4 1 7 -9 8 -21z m-178 -40 c5 -16 -7
-35 -50 -80 -31 -32 -59 -58 -62 -58 -4 0 -5 20 -3 45 3 37 10 49 36 67 17 12
35 28 39 35 12 20 34 15 40 -9z m1335 -23 c94 -56 101 -68 107 -166 l5 -84
-100 104 c-64 66 -99 109 -95 118 3 8 8 26 11 39 3 13 8 24 9 24 2 0 30 -16
63 -35z m-1619 -7 c-16 -32 -16 -32 -21 -3 -4 20 -1 25 14 25 16 0 17 -3 7
-22z m3 -78 c18 1 51 7 73 15 22 8 40 15 41 15 0 0 0 -25 0 -55 l-1 -55 -55
-15 c-30 -8 -85 -23 -122 -33 -41 -12 -65 -15 -63 -8 2 6 9 34 15 61 7 28 19
74 27 104 l15 53 19 -41 c16 -36 22 -41 51 -41z m1911 47 c3 -7 -3 -13 -14
-14 -12 -1 -16 3 -12 13 6 18 19 18 26 1z m-3 -72 c35 -3 65 -7 66 -8 1 -1 5
-19 8 -41 4 -21 8 -41 11 -45 2 -4 6 -18 8 -32 3 -13 10 -44 17 -68 6 -23 9
-45 6 -48 -5 -6 -201 44 -226 57 -12 7 -17 30 -19 104 l-2 96 33 -4 c18 -3 62
-8 98 -11z"/>
<path d="M63 1517 c25 -45 65 -120 90 -167 24 -47 61 -116 81 -154 l36 -68
-48 -92 c-27 -50 -80 -149 -117 -221 -37 -71 -72 -136 -78 -142 -5 -7 -8 -13
-6 -14 17 -4 1052 -3 1054 2 2 3 -13 11 -33 18 -39 14 -258 95 -302 112 l-26
10 1 382 c0 210 -1 390 -3 399 -4 16 -31 17 -348 17 l-345 0 44 -82z"/>
<path d="M4428 1199 l-3 -402 -80 -29 c-44 -17 -116 -44 -160 -60 -73 -28 -96
-35 -117 -37 -5 -1 -8 -4 -8 -8 0 -5 239 -8 530 -8 292 0 530 2 530 5 -1 3
-37 73 -81 155 -44 83 -99 187 -122 233 l-42 82 28 51 c15 29 53 99 84 158 30
58 70 133 88 166 17 33 34 68 38 77 5 15 -20 17 -338 17 l-345 1 -2 -401z"/>
<path d="M900 800 c-5 -3 48 -27 118 -54 185 -71 222 -84 223 -83 1 1 2 32 4
70 2 62 1 67 -19 68 -112 4 -320 3 -326 -1z"/>
<path d="M3928 802 c-16 -2 -28 -8 -29 -13 -1 -15 -4 -129 -3 -129 15 0 363
140 349 140 -92 3 -295 4 -317 2z"/>
</g>
</svg>
